<svg t="1720164340399" class="icon" viewBox="0 0 1024 1024" version="1.1" xmlns="http://www.w3.org/2000/svg" p-id="3488" width="200" height="200"><path d="M512 0a512 512 0 1 1 0 1024A512 512 0 0 1 512 0z m0 896A384 384 0 1 0 512 128a384 384 0 0 0 0 768z m0-384a128 128 0 1 1-128 128 133.76 133.76 0 0 1 4.48-32.64L274.56 493.44a64.256 64.256 0 0 1 90.88-90.88l113.92 113.92A133.76 133.76 0 0 1 512 512z m0-128a64 64 0 1 1 0-128 64 64 0 0 1 0 128z m192 0a64 64 0 1 1 0 128 64 64 0 0 1 0-128z" fill="#000000" p-id="3489"></path></svg>