<svg t="1720164441200" class="icon" viewBox="0 0 1024 1024" version="1.1" xmlns="http://www.w3.org/2000/svg" p-id="3782" width="200" height="200"><path d="M873.463906 508.421156l71.03929 60.799392c21.759782 19.135809 26.879731 51.00749 12.095879 75.903241l-93.375067 157.822422a60.223398 60.223398 0 0 1-69.887301 27.711722l-95.167048-31.359686c-13.823862 9.471905-28.287717 17.919821-43.327567 25.343747l-18.687813 91.519084a60.223398 60.223398 0 0 1-60.223398 48.831512H389.180749a60.223398 60.223398 0 0 1-60.223398-48.831512l-18.687813-91.519084a352.95647 352.95647 0 0 1-43.391566-25.343747l-95.167048 31.359686a60.223398 60.223398 0 0 1-69.823302-27.711722L8.384557 645.123789A60.223398 60.223398 0 0 1 20.544435 569.220548l69.887301-60.223398a195.198048 195.198048 0 0 1 0-52.99147L20.544435 395.782282a60.223398 60.223398 0 0 1-12.031879-75.903241L101.823622 162.056619a60.223398 60.223398 0 0 1 69.823302-27.711722l95.167049 31.359686c13.887861-9.471905 28.351716-17.919821 43.391566-25.343747L327.741363 48.841752A60.223398 60.223398 0 0 1 387.964761 0.01024H574.778893a60.223398 60.223398 0 0 1 60.223398 48.767512l18.687813 91.519085c15.03985 7.423926 29.503705 15.935841 43.327566 25.343747l95.167049-31.359687a60.223398 60.223398 0 0 1 69.887301 27.775722l93.439066 157.182429c14.719853 24.95975 9.599904 56.767432-12.159879 75.903241l-69.759302 60.223397a195.198048 195.198048 0 0 1 0 53.05547z m-124.094759-67.519325a60.223398 60.223398 0 0 1 21.119789-55.359446l55.99944-48.191519-43.391566-73.535264-77.05523 27.711723a60.223398 60.223398 0 0 1-56.063439-9.599904 258.429416 258.429416 0 0 0-71.03929-40.959591 60.223398 60.223398 0 0 1-36.735632-45.823541l-15.679844-74.687254H437.372267L421.692424 195.208288a60.223398 60.223398 0 0 1-36.735633 45.823542c-25.791742 9.151908-49.9835 22.399776-71.679283 39.103609a60.223398 60.223398 0 0 1-55.99944 9.663903l-76.479235-25.919741-44.607554 73.535265 55.99944 48.191518c16.063839 13.567864 23.807762 34.559654 20.479795 55.359446v9.087909a184.95815 184.95815 0 0 0-3.583964 31.871682c0.831992 10.815892 2.687973 21.503785 5.439945 31.99968v8.95991a60.223398 60.223398 0 0 1-20.479795 55.423446l-56.063439 48.191518 42.815572 73.471265 77.055229-27.647723a60.223398 60.223398 0 0 1 56.063439 9.599904c21.311787 17.343827 45.311547 31.167688 71.03929 40.95959 19.391806 7.871921 33.279667 25.215748 36.735633 45.759543l15.679843 74.687253h89.151108l15.03985-76.479236a60.223398 60.223398 0 0 1 37.375626-43.96756c25.791742-9.151908 49.9835-22.399776 71.679283-39.167608a60.223398 60.223398 0 0 1 55.99944-9.599904l76.479236 25.855741 42.815572-73.471265-56.06344-48.191518a60.223398 60.223398 0 0 1-20.479795-55.423446v-8.95991a184.95815 184.95815 0 0 0 3.647963-31.99968 184.95815 184.95815 0 0 0-3.647963-31.871682v-9.087909zM481.979821 301.191228a180.734193 180.734193 0 1 1 0 361.404386 180.734193 180.734193 0 0 1 0-361.404386z m0 240.957591a60.223398 60.223398 0 1 0 0-120.510795 60.223398 60.223398 0 0 0 0 120.510795z" fill="#000000" p-id="3783"></path></svg>