<svg t="1720164476899" class="icon" viewBox="0 0 1024 1024" version="1.1" xmlns="http://www.w3.org/2000/svg" p-id="3931" width="200" height="200"><path d="M661.632 581.952a284.416 284.416 0 1 0-299.264 0 341.312 341.312 0 0 0-248.576 328.32c0 31.36 25.472 56.832 56.896 56.832h682.624c31.424 0 56.96-25.472 56.96-56.896a341.312 341.312 0 0 0-248.64-328.256zM512 170.688A170.688 170.688 0 1 1 512 512a170.688 170.688 0 0 1 0-341.312zM234.944 853.312a227.584 227.584 0 0 1 220.16-170.624H568.96a227.584 227.584 0 0 1 220.16 170.624H234.88z" fill="#000000" p-id="3932"></path></svg>